# Tiled2Unity generated file. Do not modify by hand.
# Wavefront file for 'house_mesh_0002.obj'

# Vertices (Count = 464)
v 0 -0.32 0
v -0.32 -0.32 0
v -0.32 0 0
v 0 0 0
v -0.32 -0.32 0
v -0.64 -0.32 0
v -0.64 0 0
v -0.32 0 0
v -0.64 -0.32 0
v -0.96 -0.32 0
v -0.96 0 0
v -0.64 0 0
v -0.96 -0.32 0
v -1.28 -0.32 0
v -1.28 0 0
v -0.96 0 0
v -1.28 -0.32 0
v -1.6 -0.32 0
v -1.6 0 0
v -1.28 0 0
v -1.6 -0.32 0
v -1.92 -0.32 0
v -1.92 0 0
v -1.6 0 0
v -1.92 -0.32 0
v -2.24 -0.32 0
v -2.24 0 0
v -1.92 0 0
v -2.24 -0.32 0
v -2.56 -0.32 0
v -2.56 0 0
v -2.24 0 0
v -2.56 -0.32 0
v -2.88 -0.32 0
v -2.88 0 0
v -2.56 0 0
v -2.88 -0.32 0
v -3.2 -0.32 0
v -3.2 0 0
v -2.88 0 0
v -3.2 -0.32 0
v -3.52 -0.32 0
v -3.52 0 0
v -3.2 0 0
v -3.52 -0.32 0
v -3.84 -0.32 0
v -3.84 0 0
v -3.52 0 0
v -3.84 -0.32 0
v -4.16 -0.32 0
v -4.16 0 0
v -3.84 0 0
v -4.16 -0.32 0
v -4.48 -0.32 0
v -4.48 0 0
v -4.16 0 0
v -4.48 -0.32 0
v -4.8 -0.32 0
v -4.8 0 0
v -4.48 0 0
v -4.8 -0.32 0
v -5.12 -0.32 0
v -5.12 0 0
v -4.8 0 0
v -5.12 -0.32 0
v -5.44 -0.32 0
v -5.44 0 0
v -5.12 0 0
v -5.44 -0.32 0
v -5.76 -0.32 0
v -5.76 0 0
v -5.44 0 0
v -5.76 -0.32 0
v -6.08 -0.32 0
v -6.08 0 0
v -5.76 0 0
v -6.08 -0.32 0
v -6.4 -0.32 0
v -6.4 0 0
v -6.08 0 0
v 0 -0.64 0
v -0.32 -0.64 0
v -0.32 -0.32 0
v 0 -0.32 0
v -0.32 -0.64 0
v -0.64 -0.64 0
v -0.64 -0.32 0
v -0.32 -0.32 0
v -0.64 -0.64 0
v -0.96 -0.64 0
v -0.96 -0.32 0
v -0.64 -0.32 0
v -2.88 -0.64 0
v -3.2 -0.64 0
v -3.2 -0.32 0
v -2.88 -0.32 0
v -3.2 -0.64 0
v -3.52 -0.64 0
v -3.52 -0.32 0
v -3.2 -0.32 0
v -3.52 -0.64 0
v -3.84 -0.64 0
v -3.84 -0.32 0
v -3.52 -0.32 0
v -3.84 -0.64 0
v -4.16 -0.64 0
v -4.16 -0.32 0
v -3.84 -0.32 0
v -4.16 -0.64 0
v -4.48 -0.64 0
v -4.48 -0.32 0
v -4.16 -0.32 0
v -5.44 -0.64 0
v -5.76 -0.64 0
v -5.76 -0.32 0
v -5.44 -0.32 0
v -5.76 -0.64 0
v -6.08 -0.64 0
v -6.08 -0.32 0
v -5.76 -0.32 0
v -6.08 -0.64 0
v -6.4 -0.64 0
v -6.4 -0.32 0
v -6.08 -0.32 0
v 0 -0.96 0
v -0.32 -0.96 0
v -0.32 -0.64 0
v 0 -0.64 0
v -0.32 -0.96 0
v -0.64 -0.96 0
v -0.64 -0.64 0
v -0.32 -0.64 0
v -0.64 -0.96 0
v -0.96 -0.96 0
v -0.96 -0.64 0
v -0.64 -0.64 0
v -2.88 -0.96 0
v -3.2 -0.96 0
v -3.2 -0.64 0
v -2.88 -0.64 0
v -3.2 -0.96 0
v -3.52 -0.96 0
v -3.52 -0.64 0
v -3.2 -0.64 0
v -3.52 -0.96 0
v -3.84 -0.96 0
v -3.84 -0.64 0
v -3.52 -0.64 0
v -3.84 -0.96 0
v -4.16 -0.96 0
v -4.16 -0.64 0
v -3.84 -0.64 0
v -4.16 -0.96 0
v -4.48 -0.96 0
v -4.48 -0.64 0
v -4.16 -0.64 0
v -4.48 -0.96 0
v -4.8 -0.96 0
v -4.8 -0.64 0
v -4.48 -0.64 0
v -5.44 -0.96 0
v -5.76 -0.96 0
v -5.76 -0.64 0
v -5.44 -0.64 0
v -5.76 -0.96 0
v -6.08 -0.96 0
v -6.08 -0.64 0
v -5.76 -0.64 0
v -6.08 -0.96 0
v -6.4 -0.96 0
v -6.4 -0.64 0
v -6.08 -0.64 0
v 0 -1.28 0
v -0.32 -1.28 0
v -0.32 -0.96 0
v 0 -0.96 0
v -2.88 -1.28 0
v -3.2 -1.28 0
v -3.2 -0.96 0
v -2.88 -0.96 0
v -3.2 -1.28 0
v -3.52 -1.28 0
v -3.52 -0.96 0
v -3.2 -0.96 0
v -3.52 -1.28 0
v -3.84 -1.28 0
v -3.84 -0.96 0
v -3.52 -0.96 0
v -3.84 -1.28 0
v -4.16 -1.28 0
v -4.16 -0.96 0
v -3.84 -0.96 0
v -4.48 -1.28 0
v -4.8 -1.28 0
v -4.8 -0.96 0
v -4.48 -0.96 0
v -5.44 -1.28 0
v -5.76 -1.28 0
v -5.76 -0.96 0
v -5.44 -0.96 0
v -5.76 -1.28 0
v -6.08 -1.28 0
v -6.08 -0.96 0
v -5.76 -0.96 0
v -6.08 -1.28 0
v -6.4 -1.28 0
v -6.4 -0.96 0
v -6.08 -0.96 0
v 0 -1.6 0
v -0.32 -1.6 0
v -0.32 -1.28 0
v 0 -1.28 0
v -0.96 -1.6 0
v -1.28 -1.6 0
v -1.28 -1.28 0
v -0.96 -1.28 0
v -1.28 -1.6 0
v -1.6 -1.6 0
v -1.6 -1.28 0
v -1.28 -1.28 0
v -1.6 -1.6 0
v -1.92 -1.6 0
v -1.92 -1.28 0
v -1.6 -1.28 0
v -3.84 -1.6 0
v -4.16 -1.6 0
v -4.16 -1.28 0
v -3.84 -1.28 0
v -6.08 -1.6 0
v -6.4 -1.6 0
v -6.4 -1.28 0
v -6.08 -1.28 0
v 0 -1.92 0
v -0.32 -1.92 0
v -0.32 -1.6 0
v 0 -1.6 0
v -0.64 -1.92 0
v -0.96 -1.92 0
v -0.96 -1.6 0
v -0.64 -1.6 0
v -0.96 -1.92 0
v -1.28 -1.92 0
v -1.28 -1.6 0
v -0.96 -1.6 0
v -1.28 -1.92 0
v -1.6 -1.92 0
v -1.6 -1.6 0
v -1.28 -1.6 0
v -1.6 -1.92 0
v -1.92 -1.92 0
v -1.92 -1.6 0
v -1.6 -1.6 0
v -1.92 -1.92 0
v -2.24 -1.92 0
v -2.24 -1.6 0
v -1.92 -1.6 0
v -3.84 -1.92 0
v -4.16 -1.92 0
v -4.16 -1.6 0
v -3.84 -1.6 0
v -6.08 -1.92 0
v -6.4 -1.92 0
v -6.4 -1.6 0
v -6.08 -1.6 0
v 0 -2.24 0
v -0.32 -2.24 0
v -0.32 -1.92 0
v 0 -1.92 0
v -0.96 -2.24 0
v -1.28 -2.24 0
v -1.28 -1.92 0
v -0.96 -1.92 0
v -1.28 -2.24 0
v -1.6 -2.24 0
v -1.6 -1.92 0
v -1.28 -1.92 0
v -1.6 -2.24 0
v -1.92 -2.24 0
v -1.92 -1.92 0
v -1.6 -1.92 0
v -3.84 -2.24 0
v -4.16 -2.24 0
v -4.16 -1.92 0
v -3.84 -1.92 0
v -4.16 -2.24 0
v -4.48 -2.24 0
v -4.48 -1.92 0
v -4.16 -1.92 0
v -5.12 -2.24 0
v -5.44 -2.24 0
v -5.44 -1.92 0
v -5.12 -1.92 0
v -5.44 -2.24 0
v -5.76 -2.24 0
v -5.76 -1.92 0
v -5.44 -1.92 0
v -5.76 -2.24 0
v -6.08 -2.24 0
v -6.08 -1.92 0
v -5.76 -1.92 0
v -6.08 -2.24 0
v -6.4 -2.24 0
v -6.4 -1.92 0
v -6.08 -1.92 0
v 0 -2.56 0
v -0.32 -2.56 0
v -0.32 -2.24 0
v 0 -2.24 0
v -6.08 -2.56 0
v -6.4 -2.56 0
v -6.4 -2.24 0
v -6.08 -2.24 0
v 0 -2.88 0
v -0.32 -2.88 0
v -0.32 -2.56 0
v 0 -2.56 0
v -6.08 -2.88 0
v -6.4 -2.88 0
v -6.4 -2.56 0
v -6.08 -2.56 0
v 0 -3.2 0
v -0.32 -3.2 0
v -0.32 -2.88 0
v 0 -2.88 0
v -6.08 -3.2 0
v -6.4 -3.2 0
v -6.4 -2.88 0
v -6.08 -2.88 0
v 0 -3.52 0
v -0.32 -3.52 0
v -0.32 -3.2 0
v 0 -3.2 0
v -6.08 -3.52 0
v -6.4 -3.52 0
v -6.4 -3.2 0
v -6.08 -3.2 0
v 0 -3.84 0
v -0.32 -3.84 0
v -0.32 -3.52 0
v 0 -3.52 0
v -6.08 -3.84 0
v -6.4 -3.84 0
v -6.4 -3.52 0
v -6.08 -3.52 0
v 0 -4.16 0
v -0.32 -4.16 0
v -0.32 -3.84 0
v 0 -3.84 0
v -4.8 -4.16 0
v -5.12 -4.16 0
v -5.12 -3.84 0
v -4.8 -3.84 0
v -5.12 -4.16 0
v -5.44 -4.16 0
v -5.44 -3.84 0
v -5.12 -3.84 0
v -5.44 -4.16 0
v -5.76 -4.16 0
v -5.76 -3.84 0
v -5.44 -3.84 0
v -5.76 -4.16 0
v -6.08 -4.16 0
v -6.08 -3.84 0
v -5.76 -3.84 0
v -6.08 -4.16 0
v -6.4 -4.16 0
v -6.4 -3.84 0
v -6.08 -3.84 0
v 0 -4.48 0
v -0.32 -4.48 0
v -0.32 -4.16 0
v 0 -4.16 0
v -4.8 -4.48 0
v -5.12 -4.48 0
v -5.12 -4.16 0
v -4.8 -4.16 0
v -5.12 -4.48 0
v -5.44 -4.48 0
v -5.44 -4.16 0
v -5.12 -4.16 0
v -5.44 -4.48 0
v -5.76 -4.48 0
v -5.76 -4.16 0
v -5.44 -4.16 0
v -5.76 -4.48 0
v -6.08 -4.48 0
v -6.08 -4.16 0
v -5.76 -4.16 0
v -6.08 -4.48 0
v -6.4 -4.48 0
v -6.4 -4.16 0
v -6.08 -4.16 0
v 0 -4.8 0
v -0.32 -4.8 0
v -0.32 -4.48 0
v 0 -4.48 0
v -0.32 -4.8 0
v -0.64 -4.8 0
v -0.64 -4.48 0
v -0.32 -4.48 0
v -0.64 -4.8 0
v -0.96 -4.8 0
v -0.96 -4.48 0
v -0.64 -4.48 0
v -0.96 -4.8 0
v -1.28 -4.8 0
v -1.28 -4.48 0
v -0.96 -4.48 0
v -1.92 -4.8 0
v -2.24 -4.8 0
v -2.24 -4.48 0
v -1.92 -4.48 0
v -2.24 -4.8 0
v -2.56 -4.8 0
v -2.56 -4.48 0
v -2.24 -4.48 0
v -2.56 -4.8 0
v -2.88 -4.8 0
v -2.88 -4.48 0
v -2.56 -4.48 0
v -2.88 -4.8 0
v -3.2 -4.8 0
v -3.2 -4.48 0
v -2.88 -4.48 0
v -3.2 -4.8 0
v -3.52 -4.8 0
v -3.52 -4.48 0
v -3.2 -4.48 0
v -3.52 -4.8 0
v -3.84 -4.8 0
v -3.84 -4.48 0
v -3.52 -4.48 0
v -3.84 -4.8 0
v -4.16 -4.8 0
v -4.16 -4.48 0
v -3.84 -4.48 0
v -4.16 -4.8 0
v -4.48 -4.8 0
v -4.48 -4.48 0
v -4.16 -4.48 0
v -4.48 -4.8 0
v -4.8 -4.8 0
v -4.8 -4.48 0
v -4.48 -4.48 0
v -4.8 -4.8 0
v -5.12 -4.8 0
v -5.12 -4.48 0
v -4.8 -4.48 0
v -5.12 -4.8 0
v -5.44 -4.8 0
v -5.44 -4.48 0
v -5.12 -4.48 0
v -5.44 -4.8 0
v -5.76 -4.8 0
v -5.76 -4.48 0
v -5.44 -4.48 0
v -5.76 -4.8 0
v -6.08 -4.8 0
v -6.08 -4.48 0
v -5.76 -4.48 0
v -6.08 -4.8 0
v -6.4 -4.8 0
v -6.4 -4.48 0
v -6.08 -4.48 0

# Texture cooridinates (Count = 94)
vt 0.6875 0.3125
vt 0.75 0.3125
vt 0.75 0.375
vt 0.6875 0.375
vt 0.75 0.4375
vt 0.6875 0.4375
vt 0.6875 0.1875
vt 0.75 0.1875
vt 0.75 0.25
vt 0.6875 0.25
vt 0.8125 0.25
vt 0.8125 0.3125
vt 0.125 0.8125
vt 0.1875 0.8125
vt 0.1875 0.875
vt 0.125 0.875
vt 0.6875 0.9375
vt 0.75 0.9375
vt 0.75 1
vt 0.6875 1
vt 0.8125 0.9375
vt 0.8125 1
vt 0.875 0.9375
vt 0.875 1
vt 0.8125 0.375
vt 0.75 0.0625
vt 0.8125 0.0625
vt 0.8125 0.125
vt 0.75 0.125
vt 0 0.375
vt 0.0625 0.375
vt 0.0625 0.4375
vt 0 0.4375
vt 0.125 0.375
vt 0.125 0.4375
vt 0.625 0.25
vt 0.625 0.3125
vt 0.125 0.75
vt 0.1875 0.75
vt 0.6875 0.875
vt 0.75 0.875
vt 0.8125 0.875
vt 0.875 0.875
vt 0.75 0
vt 0.8125 0
vt 0.25 0.5
vt 0.3125 0.5
vt 0.3125 0.5625
vt 0.25 0.5625
vt 0 0.3125
vt 0.0625 0.3125
vt 0.125 0.3125
vt 0.6875 0.8125
vt 0.75 0.8125
vt 0.8125 0.8125
vt 0.875 0.8125
vt 0.25 0.4375
vt 0.3125 0.4375
vt 0 0.25
vt 0.0625 0.25
vt 0.125 0.25
vt 0 0.6875
vt 0.0625 0.6875
vt 0.0625 0.75
vt 0 0.75
vt 0.125 0.6875
vt 0.1875 0.6875
vt 0 0
vt 0.0625 0
vt 0.0625 0.0625
vt 0 0.0625
vt 0 0.625
vt 0.0625 0.625
vt 0.125 0.625
vt 0.1875 0.625
vt 0.125 0
vt 0.125 0.0625
vt 0 0.5625
vt 0.0625 0.5625
vt 0.125 0.5625
vt 0.1875 0.5625
vt 0.8125 0.1875
vt 0.625 0.125
vt 0.6875 0.125
vt 0.625 0.1875
vt 0.875 0.0625
vt 0.9375 0.0625
vt 0.9375 0.125
vt 0.875 0.125
vt 1 0.0625
vt 1 0.125
vt 0.875 0
vt 0.9375 0
vt 1 0

# Normal
vn 0 0 -1

# Mesh description
g house_mesh_0002

# Faces
f 1/1/1 2/2/1 3/3/1 4/4/1
f 5/4/1 6/3/1 7/5/1 8/6/1
f 9/4/1 10/3/1 11/5/1 12/6/1
f 13/4/1 14/3/1 15/5/1 16/6/1
f 17/4/1 18/3/1 19/5/1 20/6/1
f 21/4/1 22/3/1 23/5/1 24/6/1
f 25/4/1 26/3/1 27/5/1 28/6/1
f 29/4/1 30/3/1 31/5/1 32/6/1
f 33/4/1 34/3/1 35/5/1 36/6/1
f 37/4/1 38/3/1 39/5/1 40/6/1
f 41/4/1 42/3/1 43/5/1 44/6/1
f 45/4/1 46/3/1 47/5/1 48/6/1
f 49/1/1 50/2/1 51/3/1 52/4/1
f 53/4/1 54/3/1 55/5/1 56/6/1
f 57/4/1 58/3/1 59/5/1 60/6/1
f 61/4/1 62/3/1 63/5/1 64/6/1
f 65/4/1 66/3/1 67/5/1 68/6/1
f 69/4/1 70/3/1 71/5/1 72/6/1
f 73/4/1 74/3/1 75/5/1 76/6/1
f 77/7/1 78/8/1 79/9/1 80/10/1
f 81/9/1 82/11/1 83/12/1 84/2/1
f 85/13/1 86/14/1 87/15/1 88/16/1
f 89/13/1 90/14/1 91/15/1 92/16/1
f 93/17/1 94/18/1 95/19/1 96/20/1
f 97/18/1 98/21/1 99/22/1 100/19/1
f 101/21/1 102/23/1 103/24/1 104/22/1
f 105/2/1 106/12/1 107/25/1 108/3/1
f 109/26/1 110/27/1 111/28/1 112/29/1
f 113/30/1 114/31/1 115/32/1 116/33/1
f 117/31/1 118/34/1 119/35/1 120/32/1
f 121/36/1 122/10/1 123/1/1 124/37/1
f 125/9/1 126/11/1 127/12/1 128/2/1
f 129/38/1 130/39/1 131/14/1 132/13/1
f 133/38/1 134/39/1 135/14/1 136/13/1
f 137/40/1 138/41/1 139/18/1 140/17/1
f 141/41/1 142/42/1 143/21/1 144/18/1
f 145/42/1 146/43/1 147/23/1 148/21/1
f 149/2/1 150/12/1 151/25/1 152/3/1
f 153/44/1 154/45/1 155/27/1 156/26/1
f 157/46/1 158/47/1 159/48/1 160/49/1
f 161/50/1 162/51/1 163/31/1 164/30/1
f 165/51/1 166/52/1 167/34/1 168/31/1
f 169/36/1 170/10/1 171/1/1 172/37/1
f 173/9/1 174/11/1 175/12/1 176/2/1
f 177/53/1 178/54/1 179/41/1 180/40/1
f 181/54/1 182/55/1 183/42/1 184/41/1
f 185/55/1 186/56/1 187/43/1 188/42/1
f 189/2/1 190/12/1 191/25/1 192/3/1
f 193/57/1 194/58/1 195/47/1 196/46/1
f 197/59/1 198/60/1 199/51/1 200/50/1
f 201/60/1 202/61/1 203/52/1 204/51/1
f 205/36/1 206/10/1 207/1/1 208/37/1
f 209/9/1 210/11/1 211/12/1 212/2/1
f 213/62/1 214/63/1 215/64/1 216/65/1
f 217/63/1 218/66/1 219/38/1 220/64/1
f 221/66/1 222/67/1 223/39/1 224/38/1
f 225/2/1 226/12/1 227/25/1 228/3/1
f 229/36/1 230/10/1 231/1/1 232/37/1
f 233/9/1 234/11/1 235/12/1 236/2/1
f 237/68/1 238/69/1 239/70/1 240/71/1
f 241/72/1 242/73/1 243/63/1 244/62/1
f 245/73/1 246/74/1 247/66/1 248/63/1
f 249/74/1 250/75/1 251/67/1 252/66/1
f 253/69/1 254/76/1 255/77/1 256/70/1
f 257/2/1 258/12/1 259/25/1 260/3/1
f 261/36/1 262/10/1 263/1/1 264/37/1
f 265/9/1 266/11/1 267/12/1 268/2/1
f 269/78/1 270/79/1 271/73/1 272/72/1
f 273/79/1 274/80/1 275/74/1 276/73/1
f 277/80/1 278/81/1 279/75/1 280/74/1
f 281/29/1 282/28/1 283/82/1 284/8/1
f 285/4/1 286/3/1 287/5/1 288/6/1
f 289/4/1 290/3/1 291/5/1 292/6/1
f 293/4/1 294/3/1 295/5/1 296/6/1
f 297/4/1 298/3/1 299/5/1 300/6/1
f 301/83/1 302/84/1 303/7/1 304/85/1
f 305/9/1 306/11/1 307/12/1 308/2/1
f 309/36/1 310/10/1 311/1/1 312/37/1
f 313/9/1 314/11/1 315/12/1 316/2/1
f 317/36/1 318/10/1 319/1/1 320/37/1
f 321/9/1 322/11/1 323/12/1 324/2/1
f 325/36/1 326/10/1 327/1/1 328/37/1
f 329/9/1 330/11/1 331/12/1 332/2/1
f 333/36/1 334/10/1 335/1/1 336/37/1
f 337/9/1 338/11/1 339/12/1 340/2/1
f 341/36/1 342/10/1 343/1/1 344/37/1
f 345/9/1 346/11/1 347/12/1 348/2/1
f 349/86/1 350/87/1 351/88/1 352/89/1
f 353/87/1 354/90/1 355/91/1 356/88/1
f 357/86/1 358/87/1 359/88/1 360/89/1
f 361/87/1 362/90/1 363/91/1 364/88/1
f 365/36/1 366/10/1 367/1/1 368/37/1
f 369/9/1 370/11/1 371/12/1 372/2/1
f 373/92/1 374/93/1 375/87/1 376/86/1
f 377/93/1 378/94/1 379/90/1 380/87/1
f 381/92/1 382/93/1 383/87/1 384/86/1
f 385/93/1 386/94/1 387/90/1 388/87/1
f 389/36/1 390/10/1 391/1/1 392/37/1
f 393/29/1 394/28/1 395/82/1 396/8/1
f 397/4/1 398/3/1 399/5/1 400/6/1
f 401/4/1 402/3/1 403/5/1 404/6/1
f 405/4/1 406/3/1 407/5/1 408/6/1
f 409/4/1 410/3/1 411/5/1 412/6/1
f 413/4/1 414/3/1 415/5/1 416/6/1
f 417/4/1 418/3/1 419/5/1 420/6/1
f 421/4/1 422/3/1 423/5/1 424/6/1
f 425/4/1 426/3/1 427/5/1 428/6/1
f 429/4/1 430/3/1 431/5/1 432/6/1
f 433/4/1 434/3/1 435/5/1 436/6/1
f 437/4/1 438/3/1 439/5/1 440/6/1
f 441/4/1 442/3/1 443/5/1 444/6/1
f 445/4/1 446/3/1 447/5/1 448/6/1
f 449/4/1 450/3/1 451/5/1 452/6/1
f 453/4/1 454/3/1 455/5/1 456/6/1
f 457/4/1 458/3/1 459/5/1 460/6/1
f 461/83/1 462/84/1 463/7/1 464/85/1

